<svg width="20" height="12" viewBox="0 0 20 12" fill="none" xmlns="http://www.w3.org/2000/svg">
<path d="M19.0155 1.1534L18.6504 1.51848L19.0155 1.1534C18.548 0.685952 17.7902 0.68595 17.3228 1.15339L10.384 8.09216C10.1819 8.29426 9.8542 8.29426 9.6521 8.09216L2.71334 1.1534C2.24589 0.685951 1.48803 0.685951 1.02058 1.1534C0.553139 1.62084 0.553139 2.37871 1.02058 2.84615L9.16996 10.9955C9.17017 10.9957 9.17038 10.9959 9.17058 10.9962C9.40456 11.2314 9.71247 11.3476 10.0171 11.3476C10.3237 11.3476 10.6306 11.2292 10.8631 10.9968L19.0137 2.84615C19.4794 2.38046 19.4847 1.62259 19.0155 1.1534Z" fill="#2C3D02" stroke="#2C3D02" stroke-width="1.035"/>
</svg>
