<svg width="25" height="23" viewBox="0 0 25 23" fill="none" xmlns="http://www.w3.org/2000/svg">
<path d="M8.3042 1.24283C6.38489 1.24283 4.77175 2.52592 4.24847 4.2735H1.63674C0.967481 4.2735 0.424473 4.81651 0.424473 5.48576C0.424473 6.15502 0.967481 6.69803 1.63674 6.69803H4.24847C4.77175 8.44561 6.38489 9.72869 8.3042 9.72869C10.644 9.72869 12.5471 7.82552 12.5471 5.48576C12.5471 3.146 10.644 1.24283 8.3042 1.24283ZM8.3042 7.30416C7.30174 7.30416 6.4858 6.48822 6.4858 5.48576C6.4858 4.48331 7.30174 3.66736 8.3042 3.66736C9.30666 3.66736 10.1226 4.48331 10.1226 5.48576C10.1226 6.48822 9.30666 7.30416 8.3042 7.30416ZM16.1839 4.2735C15.5147 4.2735 14.9717 4.81651 14.9717 5.48576C14.9717 6.15502 15.5147 6.69803 16.1839 6.69803H23.4575C24.1268 6.69803 24.6698 6.15502 24.6698 5.48576C24.6698 4.81651 24.1268 4.2735 23.4575 4.2735H16.1839ZM23.4575 16.3962H20.8458C20.3225 14.6486 18.7094 13.3655 16.7901 13.3655C14.4503 13.3655 12.5471 15.2687 12.5471 17.6084C12.5471 19.9482 14.4503 21.8514 16.7901 21.8514C18.7094 21.8514 20.3225 20.5683 20.8458 18.8207H23.4575C24.1268 18.8207 24.6698 18.2777 24.6698 17.6084C24.6698 16.9392 24.1268 16.3962 23.4575 16.3962ZM16.7901 19.4268C15.7876 19.4268 14.9717 18.6109 14.9717 17.6084C14.9717 16.606 15.7876 15.79 16.7901 15.79C17.7925 15.79 18.6085 16.606 18.6085 17.6084C18.6085 18.6109 17.7925 19.4268 16.7901 19.4268ZM8.91034 18.8207C9.57959 18.8207 10.1226 18.2777 10.1226 17.6084C10.1226 16.9392 9.57959 16.3962 8.91034 16.3962H1.63674C0.967482 16.3962 0.424473 16.9392 0.424473 17.6084C0.424473 18.2777 0.967481 18.8207 1.63674 18.8207H8.91034Z" fill="#2C3D02" stroke="#2C3D02" stroke-width="0.606133"/>
</svg>
