<svg width="22" height="27" viewBox="0 0 22 27" fill="none" xmlns="http://www.w3.org/2000/svg">
<path d="M6.73327 8.96537L6.73088 8.96658L6.7273 8.96901L6.73327 8.96537ZM18.6025 8.73868C18.5195 8.65731 18.4275 8.58611 18.3282 8.52653C18.1877 8.44242 18.0317 8.38851 17.8699 8.36813C17.708 8.34774 17.5438 8.36132 17.3874 8.40801C17.2309 8.45471 17.0855 8.53354 16.9602 8.63962C16.8349 8.7457 16.7323 8.87679 16.6588 9.02477C16.2482 9.84781 15.6817 10.5803 14.9919 11.1802C15.0976 10.5759 15.1511 9.96341 15.1516 9.34966C15.1539 7.48294 14.6696 5.64894 13.748 4.03439C12.8264 2.41984 11.5004 1.08241 9.90506 0.158257C9.72926 0.0567043 9.53094 0.00226921 9.32875 6.94271e-05C9.12657 -0.00213035 8.92715 0.0479774 8.74925 0.145682C8.57135 0.243387 8.42081 0.38548 8.31178 0.558603C8.20276 0.731725 8.13882 0.930191 8.12599 1.13534C8.05923 2.28469 7.76367 3.4083 7.25721 4.4381C6.75074 5.4679 6.04392 6.38246 5.17956 7.12636L4.90531 7.35306C4.00101 7.97161 3.20059 8.73419 2.53481 9.61151C1.50013 10.9367 0.783398 12.4887 0.441449 14.1445C0.0994993 15.8003 0.141745 17.5143 0.564834 19.1506C0.987924 20.7869 1.78022 22.3005 2.87888 23.5713C3.97754 24.8421 5.35234 25.8352 6.89424 26.4717C7.07527 26.5466 7.27164 26.5751 7.46606 26.5548C7.66048 26.5344 7.84699 26.4657 8.00918 26.3549C8.17137 26.244 8.30426 26.0942 8.39615 25.9189C8.48805 25.7435 8.53614 25.5479 8.53618 25.3491C8.53519 25.2207 8.51509 25.0932 8.47656 24.9709C8.20977 23.9515 8.13293 22.8903 8.25 21.8421C9.37858 24.0054 11.1899 25.7202 13.3928 26.7105C13.6616 26.8327 13.9654 26.8491 14.2454 26.7566C15.9857 26.1854 17.5534 25.1714 18.7997 23.8108C20.0459 22.4502 20.9293 20.7883 21.3659 18.9828C21.8025 17.1774 21.7778 15.2885 21.2941 13.4955C20.8104 11.7026 19.8839 10.0651 18.6025 8.73868ZM13.9461 24.2933C12.9067 23.7578 11.9897 23.0059 11.2549 22.0865C10.52 21.1672 9.98375 20.1008 9.68089 18.9569C9.58829 18.5716 9.51664 18.1815 9.46625 17.7882C9.43232 17.5378 9.32224 17.3045 9.15142 17.1208C8.98059 16.9371 8.75756 16.8123 8.51352 16.7639C8.43849 16.7491 8.36221 16.7418 8.28578 16.7421C8.07627 16.7419 7.8704 16.7978 7.68891 16.9042C7.50742 17.0106 7.35671 17.1637 7.25196 17.3482C6.2628 19.0833 5.76548 21.0629 5.81511 23.0677C4.94485 22.3799 4.2175 21.5235 3.67525 20.5478C3.13299 19.5722 2.7866 18.4969 2.65617 17.3841C2.52573 16.2714 2.61384 15.1434 2.91539 14.0655C3.21694 12.9877 3.72593 11.9814 4.41285 11.105C4.93443 10.4163 5.56363 9.81917 6.27538 9.33754C6.30653 9.31723 6.3364 9.29496 6.36481 9.27086C6.36481 9.27086 6.71776 8.97386 6.72969 8.9678C8.4291 7.50707 9.63792 5.54371 10.1877 3.35137C11.4867 4.57256 12.3528 6.19566 12.6514 7.9686C12.95 9.74155 12.6645 11.5651 11.8391 13.1562C11.7299 13.3685 11.685 13.609 11.7102 13.8473C11.7354 14.0856 11.8294 14.3109 11.9805 14.4949C12.1316 14.6789 12.3329 14.8132 12.559 14.8808C12.7851 14.9485 13.0259 14.9465 13.2509 14.8752C15.0774 14.2928 16.6845 13.1556 17.856 11.6166C18.5604 12.674 19.0209 13.8793 19.2033 15.1428C19.3856 16.4064 19.2852 17.6954 18.9093 18.9139C18.5335 20.1325 17.892 21.2491 17.0326 22.1805C16.1733 23.1119 15.1182 23.8341 13.9461 24.2933Z" fill="#FF0967"/>
</svg>
