<svg width="263" height="48" viewBox="0 0 263 48" fill="none" xmlns="http://www.w3.org/2000/svg">
<path d="M23.9999 5.02246L24.4299 5.74446C26.3769 9.01446 27.4999 12.8715 27.4999 17.0005C27.4999 17.9685 27.4379 18.9225 27.3189 19.8565C30.0567 16.0082 34.1508 13.3401 38.7769 12.3895L39.5239 12.2335L39.3679 12.9805C38.4037 17.6735 35.6728 21.8164 31.7399 24.5525C32.1559 24.5175 32.5759 24.5005 32.9999 24.5005C36.4169 24.5005 39.6029 25.6375 42.2939 27.5965L42.8499 28.0005L42.2939 28.4045C39.6029 30.3635 36.4169 31.5005 32.9999 31.5005C31.5299 31.5005 30.1009 31.2905 28.7369 30.8935C28.9869 31.2265 29.2199 31.5775 29.4329 31.9465C30.5909 33.9525 31.0029 36.2065 30.7649 38.4445L30.6929 39.1285L30.0649 38.8485C28.0079 37.9355 26.2609 36.4525 25.1029 34.4465C25.0676 34.386 25.0333 34.325 24.9999 34.2635V41.0005H22.9999V34.2635C22.9662 34.3248 22.9319 34.3858 22.8969 34.4465C21.7389 36.4525 19.9929 37.9355 17.9349 38.8495L17.3069 39.1285L17.2349 38.4445C16.9979 36.2065 17.4089 33.9525 18.5669 31.9465C18.7799 31.5775 19.0129 31.2265 19.2639 30.8935C17.8784 31.2965 16.4428 31.5008 14.9999 31.5005C11.5829 31.5005 8.3969 30.3635 5.7059 28.4045L5.1499 28.0005L5.7059 27.5965C8.3969 25.6375 11.5829 24.5005 14.9999 24.5005C15.4239 24.5005 15.8439 24.5175 16.2599 24.5525C12.3271 21.8163 9.59615 17.6734 8.6319 12.9805L8.4759 12.2325L9.2239 12.3885C13.85 13.3391 17.9441 16.0072 20.6819 19.8555C20.5606 18.9086 20.4998 17.955 20.4999 17.0005C20.4999 12.8715 21.6229 9.01446 23.5699 5.74446L23.9999 5.02246Z" fill="#2C3D02"/>
<path d="M78.9999 5.02246L79.4299 5.74446C81.3769 9.01446 82.4999 12.8715 82.4999 17.0005C82.4999 17.9685 82.4379 18.9225 82.3189 19.8565C85.0567 16.0082 89.1508 13.3401 93.7769 12.3895L94.5239 12.2335L94.3679 12.9805C93.4037 17.6735 90.6728 21.8164 86.7399 24.5525C87.1559 24.5175 87.5759 24.5005 87.9999 24.5005C91.4169 24.5005 94.6029 25.6375 97.2939 27.5965L97.8499 28.0005L97.2939 28.4045C94.6029 30.3635 91.4169 31.5005 87.9999 31.5005C86.5299 31.5005 85.1009 31.2905 83.7369 30.8935C83.9869 31.2265 84.2199 31.5775 84.4329 31.9465C85.5909 33.9525 86.0029 36.2065 85.7649 38.4445L85.6929 39.1285L85.0649 38.8485C83.0079 37.9355 81.2609 36.4525 80.1029 34.4465C80.0676 34.386 80.0333 34.325 79.9999 34.2635V41.0005H77.9999V34.2635C77.9662 34.3248 77.9319 34.3858 77.8969 34.4465C76.7389 36.4525 74.9929 37.9355 72.9349 38.8495L72.3069 39.1285L72.2349 38.4445C71.9979 36.2065 72.4089 33.9525 73.5669 31.9465C73.7799 31.5775 74.0129 31.2265 74.2639 30.8935C72.8784 31.2965 71.4428 31.5008 69.9999 31.5005C66.5829 31.5005 63.3969 30.3635 60.7059 28.4045L60.1499 28.0005L60.7059 27.5965C63.3969 25.6375 66.5829 24.5005 69.9999 24.5005C70.4239 24.5005 70.8439 24.5175 71.2599 24.5525C67.3271 21.8163 64.5962 17.6734 63.6319 12.9805L63.4759 12.2325L64.2239 12.3885C68.85 13.3391 72.9441 16.0072 75.6819 19.8555C75.5606 18.9086 75.4998 17.955 75.4999 17.0005C75.4999 12.8715 76.6229 9.01446 78.5699 5.74446L78.9999 5.02246Z" fill="#2C3D02"/>
<path d="M134 5.02246L134.43 5.74446C136.377 9.01446 137.5 12.8715 137.5 17.0005C137.5 17.9685 137.438 18.9225 137.319 19.8565C140.057 16.0082 144.151 13.3401 148.777 12.3895L149.524 12.2335L149.368 12.9805C148.404 17.6735 145.673 21.8164 141.74 24.5525C142.156 24.5175 142.576 24.5005 143 24.5005C146.417 24.5005 149.603 25.6375 152.294 27.5965L152.85 28.0005L152.294 28.4045C149.603 30.3635 146.417 31.5005 143 31.5005C141.53 31.5005 140.101 31.2905 138.737 30.8935C138.987 31.2265 139.22 31.5775 139.433 31.9465C140.591 33.9525 141.003 36.2065 140.765 38.4445L140.693 39.1285L140.065 38.8485C138.008 37.9355 136.261 36.4525 135.103 34.4465C135.068 34.386 135.033 34.325 135 34.2635V41.0005H133V34.2635C132.966 34.3248 132.932 34.3858 132.897 34.4465C131.739 36.4525 129.993 37.9355 127.935 38.8495L127.307 39.1285L127.235 38.4445C126.998 36.2065 127.409 33.9525 128.567 31.9465C128.78 31.5775 129.013 31.2265 129.264 30.8935C127.878 31.2965 126.443 31.5008 125 31.5005C121.583 31.5005 118.397 30.3635 115.706 28.4045L115.15 28.0005L115.706 27.5965C118.397 25.6375 121.583 24.5005 125 24.5005C125.424 24.5005 125.844 24.5175 126.26 24.5525C122.327 21.8163 119.596 17.6734 118.632 12.9805L118.476 12.2325L119.224 12.3885C123.85 13.3391 127.944 16.0072 130.682 19.8555C130.561 18.9086 130.5 17.955 130.5 17.0005C130.5 12.8715 131.623 9.01446 133.57 5.74446L134 5.02246Z" fill="#2C3D02"/>
<path d="M189 5.02148L189.43 5.74348C191.377 9.01348 192.5 12.8705 192.5 16.9995C192.5 17.9675 192.438 18.9215 192.319 19.8555C195.057 16.0072 199.151 13.3391 203.777 12.3885L204.524 12.2325L204.368 12.9795C203.404 17.6725 200.673 21.8154 196.74 24.5515C197.156 24.5165 197.576 24.4995 198 24.4995C201.417 24.4995 204.603 25.6365 207.294 27.5955L207.85 27.9995L207.294 28.4035C204.603 30.3625 201.417 31.4995 198 31.4995C196.53 31.4995 195.101 31.2895 193.737 30.8925C193.987 31.2255 194.22 31.5765 194.433 31.9455C195.591 33.9515 196.003 36.2055 195.765 38.4435L195.693 39.1275L195.065 38.8475C193.008 37.9345 191.261 36.4515 190.103 34.4455C190.068 34.385 190.033 34.324 190 34.2625V40.9995H188V34.2625C187.966 34.3238 187.932 34.3848 187.897 34.4455C186.739 36.4515 184.993 37.9345 182.935 38.8485L182.307 39.1275L182.235 38.4435C181.998 36.2055 182.409 33.9515 183.567 31.9455C183.78 31.5765 184.013 31.2255 184.264 30.8925C182.878 31.2955 181.443 31.4999 180 31.4995C176.583 31.4995 173.397 30.3625 170.706 28.4035L170.15 27.9995L170.706 27.5955C173.397 25.6365 176.583 24.4995 180 24.4995C180.424 24.4995 180.844 24.5165 181.26 24.5515C177.327 21.8154 174.596 17.6724 173.632 12.9795L173.476 12.2315L174.224 12.3875C178.85 13.3381 182.944 16.0062 185.682 19.8545C185.561 18.9077 185.5 17.9541 185.5 16.9995C185.5 12.8705 186.623 9.01348 188.57 5.74348L189 5.02148Z" fill="#193322" fill-opacity="0.2"/>
<path d="M244 5.02148L244.43 5.74348C246.377 9.01348 247.5 12.8705 247.5 16.9995C247.5 17.9675 247.438 18.9215 247.319 19.8555C250.057 16.0072 254.151 13.3391 258.777 12.3885L259.524 12.2325L259.368 12.9795C258.404 17.6725 255.673 21.8154 251.74 24.5515C252.156 24.5165 252.576 24.4995 253 24.4995C256.417 24.4995 259.603 25.6365 262.294 27.5955L262.85 27.9995L262.294 28.4035C259.603 30.3625 256.417 31.4995 253 31.4995C251.53 31.4995 250.101 31.2895 248.737 30.8925C248.987 31.2255 249.22 31.5765 249.433 31.9455C250.591 33.9515 251.003 36.2055 250.765 38.4435L250.693 39.1275L250.065 38.8475C248.008 37.9345 246.261 36.4515 245.103 34.4455C245.068 34.385 245.033 34.324 245 34.2625V40.9995H243V34.2625C242.966 34.3238 242.932 34.3848 242.897 34.4455C241.739 36.4515 239.993 37.9345 237.935 38.8485L237.307 39.1275L237.235 38.4435C236.998 36.2055 237.409 33.9515 238.567 31.9455C238.78 31.5765 239.013 31.2255 239.264 30.8925C237.878 31.2955 236.443 31.4999 235 31.4995C231.583 31.4995 228.397 30.3625 225.706 28.4035L225.15 27.9995L225.706 27.5955C228.397 25.6365 231.583 24.4995 235 24.4995C235.424 24.4995 235.844 24.5165 236.26 24.5515C232.327 21.8154 229.596 17.6724 228.632 12.9795L228.476 12.2315L229.224 12.3875C233.85 13.3381 237.944 16.0062 240.682 19.8545C240.561 18.9077 240.5 17.9541 240.5 16.9995C240.5 12.8705 241.623 9.01348 243.57 5.74348L244 5.02148Z" fill="#193322" fill-opacity="0.2"/>
</svg>
