<svg width="16" height="20" viewBox="0 0 16 20" fill="none" xmlns="http://www.w3.org/2000/svg">
<path d="M8.0748 4.28916C5.99388 4.28916 4.30137 5.98167 4.30137 8.0626C4.30137 10.1435 5.99388 11.836 8.0748 11.836C10.1557 11.836 11.8482 10.1435 11.8482 8.0626C11.8482 5.98167 10.1557 4.28916 8.0748 4.28916ZM8.0748 10.3267C6.82605 10.3267 5.81074 9.31135 5.81074 8.0626C5.81074 6.81384 6.82605 5.79853 8.0748 5.79853C9.32356 5.79853 10.3389 6.81384 10.3389 8.0626C10.3389 9.31135 9.32356 10.3267 8.0748 10.3267ZM8.07078 0.26416C3.62718 0.26416 0.276367 3.61698 0.276367 8.0626C0.276367 14.3094 5.04196 18.2015 7.08968 19.5841C7.38753 19.7854 7.72866 19.886 8.07078 19.886C8.41089 19.886 8.752 19.7855 9.04985 19.5852C11.1016 18.1996 15.8732 14.3024 15.8732 8.06161C15.8732 3.616 12.5194 0.26416 8.07078 0.26416ZM8.20562 18.3344C8.1221 18.3908 8.01845 18.3908 7.93493 18.3344C6.49197 17.3604 1.78574 13.7409 1.78574 8.0626C1.78574 4.47733 4.48753 1.77354 8.07078 1.77354C11.6581 1.77354 14.3639 4.47733 14.3639 8.0626C14.3639 13.5799 10.0571 17.0846 8.20562 18.3344Z" fill="#2C3D02"/>
</svg>
