<svg width="24" height="20" viewBox="0 0 24 20" fill="none" xmlns="http://www.w3.org/2000/svg">
<path d="M1.45039 0.600195C0.815509 0.600195 0.300391 1.11531 0.300391 1.7502C0.300391 2.38508 0.815509 2.9002 1.45039 2.9002H16.4004C17.0353 2.9002 17.5504 2.38508 17.5504 1.7502C17.5504 1.11531 17.0353 0.600195 16.4004 0.600195H1.45039ZM22.1504 8.6502H1.45039C0.815509 8.6502 0.300391 9.16531 0.300391 9.80019C0.300391 10.4351 0.815509 10.9502 1.45039 10.9502H22.1504C22.7853 10.9502 23.3004 10.4351 23.3004 9.80019C23.3004 9.16531 22.7853 8.6502 22.1504 8.6502ZM11.8004 16.7002H1.45039C0.815509 16.7002 0.300391 17.2153 0.300391 17.8502C0.300391 18.4851 0.815509 19.0002 1.45039 19.0002H11.8004C12.4353 19.0002 12.9504 18.4851 12.9504 17.8502C12.9504 17.2153 12.4353 16.7002 11.8004 16.7002Z" fill="#2C3D02" stroke="#2C3D02" stroke-width="0.575"/>
</svg>
