<svg width="26" height="26" viewBox="0 0 26 26" fill="none" xmlns="http://www.w3.org/2000/svg">
<path d="M9.75033 23.8332C10.3486 23.8332 10.8337 23.3481 10.8337 22.7498C10.8337 22.1515 10.3486 21.6665 9.75033 21.6665C9.15202 21.6665 8.66699 22.1515 8.66699 22.7498C8.66699 23.3481 9.15202 23.8332 9.75033 23.8332Z" stroke="#2C3D02" stroke-width="2.16667" stroke-linecap="round" stroke-linejoin="round"/>
<path d="M21.6663 23.8332C22.2646 23.8332 22.7497 23.3481 22.7497 22.7498C22.7497 22.1515 22.2646 21.6665 21.6663 21.6665C21.068 21.6665 20.583 22.1515 20.583 22.7498C20.583 23.3481 21.068 23.8332 21.6663 23.8332Z" stroke="#2C3D02" stroke-width="2.16667" stroke-linecap="round" stroke-linejoin="round"/>
<path d="M1.08301 1.0835H5.41634L8.31967 15.5893C8.41874 16.0881 8.69008 16.5361 9.08618 16.855C9.48229 17.1739 9.97793 17.3432 10.4863 17.3335H21.0163C21.5248 17.3432 22.0204 17.1739 22.4165 16.855C22.8126 16.5361 23.0839 16.0881 23.183 15.5893L24.9163 6.50016H6.49967" stroke="#2C3D02" stroke-width="2.16667" stroke-linecap="round" stroke-linejoin="round"/>
</svg>
