<svg width="31" height="24" viewBox="0 0 31 24" fill="none" xmlns="http://www.w3.org/2000/svg">
<path fill-rule="evenodd" clip-rule="evenodd" d="M22.3585 0.636719C22.6958 0.636719 23.0188 0.771143 23.2536 1.0093L29.9037 7.7534C30.3832 8.23958 30.371 9.01592 29.8766 9.48727C29.3822 9.95878 28.5928 9.94685 28.1135 9.46062L23.6054 4.88885V21.4821C23.6054 22.1593 23.0471 22.7083 22.3585 22.7083C21.6698 22.7083 21.1116 22.1593 21.1116 21.4821V4.88885L16.6034 9.46062C16.1241 9.94685 15.3347 9.95878 14.8403 9.48727C14.3459 9.01592 14.3337 8.23958 14.8132 7.7534L21.4633 1.0093C21.6981 0.771143 22.0211 0.636719 22.3585 0.636719ZM9.05817 0.636719C9.74681 0.636719 10.3051 1.18571 10.3051 1.86292V18.4562L14.8132 13.8844C15.2925 13.3982 16.0819 13.3863 16.5763 13.8578C17.0708 14.3291 17.0829 15.1054 16.6034 15.5916L9.95333 22.3357C9.71848 22.5739 9.39552 22.7083 9.05817 22.7083C8.72083 22.7083 8.39786 22.5739 8.16303 22.3357L1.51289 15.5916C1.03348 15.1054 1.04564 14.3291 1.54001 13.8578C2.03439 13.3863 2.82378 13.3982 3.30319 13.8844L7.81127 18.4562V1.86292C7.81127 1.18571 8.36953 0.636719 9.05817 0.636719Z" fill="#2C3D02" stroke="#2C3D02" stroke-width="0.606133" stroke-linejoin="round"/>
</svg>
